<svg width="200" height="200" viewBox="0 0 200 200" fill="none" xmlns="http://www.w3.org/2000/svg">
<path d="M100 0C86.8678 -1.566e-07 73.8642 2.58658 61.7317 7.61205C49.5991 12.6375 38.5752 20.0035 29.2893 29.2893C20.0035 38.5752 12.6375 49.5991 7.61205 61.7317C2.58658 73.8642 -4.17426e-07 86.8678 0 100C4.17426e-07 113.132 2.58658 126.136 7.61205 138.268C12.6375 150.401 20.0035 161.425 29.2893 170.711C38.5752 179.997 49.5991 187.362 61.7317 192.388C73.8642 197.413 86.8678 200 100 200L100 100L100 0Z" fill="url(#paint0_linear_5_47)"/>
<path d="M100 200C126.522 200 151.957 189.464 170.711 170.711C189.464 151.957 200 126.522 200 100C200 73.4784 189.464 48.043 170.711 29.2893C151.957 10.5357 126.522 4.88088e-06 100 1.19249e-06L100 100L100 200Z" fill="white"/>
<defs>
<linearGradient id="paint0_linear_5_47" x1="100" y1="0" x2="100" y2="200" gradientUnits="userSpaceOnUse">
<stop stop-color="#37E9FD"/>
<stop offset="1" stop-color="#0746EF"/>
</linearGradient>
</defs>
</svg>
