<svg width="150" height="150" viewBox="0 0 150 150" fill="none" xmlns="http://www.w3.org/2000/svg">
<path d="M75 150C84.8491 150 94.6018 148.06 103.701 144.291C112.801 140.522 121.069 134.997 128.033 128.033C134.997 121.069 140.522 112.801 144.291 103.701C148.06 94.6018 150 84.8491 150 75C150 65.1509 148.06 55.3982 144.291 46.2987C140.522 37.1993 134.997 28.9314 128.033 21.967C121.069 15.0026 112.801 9.47814 103.701 5.70904C94.6018 1.93994 84.8491 4.95208e-06 75 6.55671e-06L75 75L75 150Z" fill="url(#paint0_linear_5_48)"/>
<path d="M75 3.6949e-06C55.1087 5.75011e-06 36.0322 7.90177 21.967 21.967C7.90175 36.0322 -7.64258e-06 55.1088 -7.22748e-06 75C-6.81238e-06 94.8912 7.90176 113.968 21.967 128.033C36.0322 142.098 55.1088 150 75 150L75 75L75 3.6949e-06Z" fill="white"/>
<defs>
<linearGradient id="paint0_linear_5_48" x1="75" y1="150" x2="75" y2="6.55671e-06" gradientUnits="userSpaceOnUse">
<stop stop-color="#37E9FD"/>
<stop offset="1" stop-color="#0746EF"/>
</linearGradient>
</defs>
</svg>
